<svg width="271" height="62" viewBox="0 0 271 62" fill="none" xmlns="http://www.w3.org/2000/svg">
<path d="M73.8036 28.5086C73.1615 28.5086 72.673 28.1469 72.338 27.4164L66.5036 13.0183C66.4547 12.8871 66.4338 12.7488 66.4338 12.6069C66.4338 12.2665 66.5245 11.997 66.7129 11.7984C66.8979 11.5998 67.1596 11.5005 67.4946 11.5005C67.7179 11.5005 67.9168 11.5714 68.0948 11.7133C68.2797 11.848 68.4193 12.0253 68.5135 12.2523L74.0688 26.3241L79.624 12.2523C79.7147 12.0253 79.8508 11.848 80.0288 11.7133C80.2137 11.5714 80.4196 11.5005 80.6429 11.5005C80.9675 11.5005 81.2222 11.5998 81.4106 11.7984C81.606 11.997 81.7037 12.2665 81.7037 12.6069C81.7037 12.7488 81.6793 12.8871 81.634 13.0183L75.7856 27.4164C75.4576 28.1469 74.969 28.5086 74.32 28.5086H73.8036Z" fill="black"/>
<path d="M85.6373 28.3949C85.3302 28.3949 85.072 28.2921 84.8696 28.0828C84.6637 27.8771 84.5625 27.6218 84.5625 27.3168V12.7344C84.5625 12.4223 84.6637 12.1634 84.8696 11.9542C85.072 11.7379 85.3302 11.6279 85.6373 11.6279H95.1147C95.3938 11.6279 95.6311 11.7272 95.8265 11.9258C96.0289 12.1244 96.1336 12.3656 96.1336 12.6493C96.1336 12.9436 96.0289 13.1883 95.8265 13.3869C95.6311 13.5784 95.3938 13.6706 95.1147 13.6706H86.712V18.9759H94.2632C94.5424 18.9759 94.7797 19.0752 94.9751 19.2738C95.1775 19.4724 95.2822 19.7206 95.2822 20.0114C95.2822 20.2951 95.1775 20.5363 94.9751 20.7349C94.7797 20.9264 94.5424 21.0186 94.2632 21.0186H86.712V26.3522H95.1147C95.3938 26.3522 95.6311 26.4515 95.8265 26.6501C96.0289 26.8487 96.1336 27.097 96.1336 27.3878C96.1336 27.6715 96.0289 27.9126 95.8265 28.1112C95.6311 28.3027 95.3938 28.3949 95.1147 28.3949H85.6373Z" fill="black"/>
<path d="M101.144 28.3951C100.732 28.3951 100.379 28.2497 100.083 27.9554C99.7931 27.654 99.6501 27.2958 99.6501 26.8773V12.6069C99.6501 12.3055 99.7512 12.0466 99.9571 11.8267C100.16 11.6104 100.418 11.5005 100.725 11.5005C101.021 11.5005 101.273 11.6104 101.479 11.8267C101.691 12.0466 101.8 12.3055 101.8 12.6069V26.2106H109.532C109.839 26.2106 110.094 26.3205 110.3 26.5369C110.513 26.7567 110.621 27.0156 110.621 27.3171C110.621 27.622 110.513 27.8774 110.3 28.0831C110.094 28.2923 109.839 28.3951 109.532 28.3951H101.144Z" fill="black"/>
<path d="M118.478 28.6365C116.475 28.6365 114.601 28.2535 112.853 27.4875C112.657 27.4024 112.493 27.2712 112.364 27.0903C112.242 26.9023 112.183 26.7037 112.183 26.4945C112.183 26.2214 112.27 25.9838 112.448 25.7852C112.633 25.5867 112.87 25.4874 113.16 25.4874C113.317 25.4874 113.467 25.5228 113.606 25.5867C115.058 26.2392 116.611 26.5654 118.268 26.5654C121.022 26.5654 122.4 25.6434 122.4 23.7993C122.4 23.3276 122.222 22.9305 121.87 22.6077C121.514 22.2886 121.077 22.0368 120.557 21.8559C120.034 21.668 119.294 21.4446 118.338 21.1892C117.061 20.8488 116.028 20.5225 115.24 20.2104C114.447 19.8984 113.767 19.4302 113.202 18.8061C112.633 18.1819 112.35 17.3521 112.35 16.3095C112.35 15.3945 112.588 14.5647 113.062 13.8271C113.537 13.0823 114.235 12.4901 115.156 12.0539C116.077 11.6106 117.183 11.3872 118.478 11.3872C120.209 11.3872 121.775 11.6532 123.182 12.1816C123.628 12.3341 123.852 12.6497 123.852 13.132C123.852 13.3873 123.761 13.6214 123.586 13.8271C123.408 14.0363 123.182 14.1391 122.902 14.1391C122.808 14.1391 122.683 14.1108 122.526 14.054C121.297 13.6214 120.027 13.4015 118.715 13.4015C117.466 13.4015 116.454 13.6427 115.672 14.125C114.891 14.6073 114.5 15.2811 114.5 16.1393C114.5 16.7173 114.685 17.1854 115.058 17.5436C115.428 17.9053 115.896 18.189 116.454 18.3947C117.012 18.5933 117.773 18.8026 118.743 19.0189C119.978 19.331 120.98 19.6395 121.744 19.9409C122.515 20.2459 123.171 20.7176 123.712 21.3594C124.26 21.9942 124.535 22.8595 124.535 23.9553C124.535 24.8455 124.277 25.6505 123.768 26.3668C123.265 27.0761 122.557 27.6364 121.646 28.0407C120.732 28.4379 119.678 28.6365 118.478 28.6365Z" fill="black"/>
<path d="M128.913 28.5084C128.606 28.5084 128.348 28.402 128.146 28.1963C127.94 27.9906 127.839 27.7353 127.839 27.4303V12.7344C127.839 12.4223 127.94 12.1634 128.146 11.9542C128.348 11.7379 128.606 11.6279 128.913 11.6279H134.301C135.798 11.6279 137.016 11.8833 137.958 12.3939C138.907 12.9046 139.584 13.5642 139.996 14.3657C140.404 15.1601 140.61 16.0254 140.61 16.9616C140.61 17.8907 140.404 18.756 139.996 19.5575C139.584 20.3519 138.907 21.0115 137.958 21.5292C137.016 22.0399 135.798 22.2952 134.301 22.2952H129.988V27.4303C129.988 27.7353 129.88 27.9906 129.667 28.1963C129.461 28.402 129.21 28.5084 128.913 28.5084ZM134.092 20.2242C135.69 20.2242 136.817 19.9121 137.47 19.288C138.129 18.6638 138.461 17.8907 138.461 16.9616C138.461 16.0254 138.129 15.2452 137.47 14.621C136.817 13.9969 135.69 13.6848 134.092 13.6848H129.988V20.2242H134.092Z" fill="black"/>
<path d="M144.805 28.5084C144.498 28.5084 144.24 28.402 144.037 28.1963C143.832 27.9906 143.73 27.7353 143.73 27.4303V12.7344C143.73 12.4223 143.832 12.1634 144.037 11.9542C144.24 11.7379 144.498 11.6279 144.805 11.6279H150.305C152.454 11.6279 154.063 12.0783 155.134 12.9755C156.202 13.8657 156.739 15.0395 156.739 16.4935C156.739 17.4581 156.474 18.3376 155.944 19.1319C155.42 19.9263 154.652 20.5008 153.64 20.8483C154.775 21.1533 155.553 21.8697 155.971 23.0045C156.39 24.1322 156.6 25.2387 156.6 26.3239V27.4303C156.6 27.7353 156.495 27.9906 156.292 28.1963C156.087 28.402 155.835 28.5084 155.539 28.5084C155.204 28.5084 154.939 28.4091 154.743 28.2105C154.548 28.0119 154.45 27.753 154.45 27.4303V26.7069C154.45 25.9125 154.373 25.1749 154.227 24.494C154.087 23.8131 153.745 23.2031 153.208 22.6641C152.677 22.125 151.868 21.8555 150.779 21.8555H145.88V27.4303C145.88 27.7353 145.772 27.9906 145.559 28.1963C145.353 28.402 145.102 28.5084 144.805 28.5084ZM150.165 19.7986C151.522 19.7986 152.597 19.5256 153.389 18.9759C154.188 18.4298 154.59 17.6567 154.59 16.6637C154.59 15.7097 154.244 14.9757 153.557 14.465C152.866 13.9472 151.7 13.6848 150.053 13.6848H145.88V19.7986H150.165Z" fill="black"/>
<path d="M161.643 28.5086C161.336 28.5086 161.077 28.4022 160.875 28.1965C160.669 27.9909 160.568 27.7355 160.568 27.4305V12.6069C160.568 12.3055 160.669 12.0466 160.875 11.8267C161.077 11.6104 161.336 11.5005 161.643 11.5005C161.939 11.5005 162.191 11.6104 162.396 11.8267C162.609 12.0466 162.717 12.3055 162.717 12.6069V27.4305C162.717 27.7355 162.609 27.9909 162.396 28.1965C162.191 28.4022 161.939 28.5086 161.643 28.5086Z" fill="black"/>
<path d="M168.382 28.5086C168.075 28.5086 167.817 28.4022 167.615 28.1965C167.409 27.9909 167.308 27.7355 167.308 27.4305V13.0892C167.308 12.6566 167.454 12.2807 167.754 11.9686C168.061 11.6565 168.424 11.5005 168.843 11.5005H169.15C169.66 11.5005 170.099 11.7416 170.462 12.2239L179.563 25.5865V12.6069C179.563 12.3055 179.664 12.0466 179.87 11.8267C180.072 11.6104 180.323 11.5005 180.624 11.5005C180.92 11.5005 181.175 11.6104 181.391 11.8267C181.604 12.0466 181.712 12.3055 181.712 12.6069V26.9482C181.712 27.3844 181.559 27.7533 181.252 28.0547C180.945 28.3597 180.575 28.5086 180.149 28.5086H179.87C179.619 28.5086 179.381 28.4519 179.158 28.3384C178.935 28.2178 178.753 28.0618 178.614 27.8703L169.457 14.4368V27.4305C169.457 27.7355 169.349 27.9909 169.136 28.1965C168.93 28.4022 168.679 28.5086 168.382 28.5086Z" fill="black"/>
<path d="M191.196 28.5084C190.896 28.5084 190.645 28.402 190.443 28.1963C190.237 27.9906 190.136 27.7353 190.136 27.4303V13.6706H185.306C185.027 13.6706 184.79 13.5784 184.594 13.3869C184.406 13.1883 184.315 12.9436 184.315 12.6493C184.315 12.3656 184.406 12.1244 184.594 11.9258C184.79 11.7272 185.027 11.6279 185.306 11.6279H197.087C197.366 11.6279 197.603 11.7272 197.799 11.9258C198.001 12.1244 198.106 12.3656 198.106 12.6493C198.106 12.9436 198.001 13.1883 197.799 13.3869C197.603 13.5784 197.366 13.6706 197.087 13.6706H192.285V27.4303C192.285 27.7353 192.177 27.9906 191.964 28.1963C191.748 28.402 191.493 28.5084 191.196 28.5084Z" fill="black"/>
<path d="M73.0498 61.8722C72.7498 61.8722 72.4985 61.7658 72.2961 61.5601C72.0902 61.3544 71.989 61.0991 71.989 60.7941V47.0344H67.1596C66.8804 47.0344 66.6432 46.9422 66.4478 46.7507C66.2593 46.5521 66.1686 46.3074 66.1686 46.013C66.1686 45.7293 66.2593 45.4882 66.4478 45.2896C66.6432 45.091 66.8804 44.9917 67.1596 44.9917H78.9401C79.2192 44.9917 79.4565 45.091 79.6519 45.2896C79.8543 45.4882 79.959 45.7293 79.959 46.013C79.959 46.3074 79.8543 46.5521 79.6519 46.7507C79.4565 46.9422 79.2192 47.0344 78.9401 47.0344H74.1386V60.7941C74.1386 61.0991 74.0304 61.3544 73.8175 61.5601C73.6012 61.7658 73.3465 61.8722 73.0498 61.8722Z" fill="black"/>
<path d="M83.6272 61.7587C83.3201 61.7587 83.0619 61.6558 82.8595 61.4466C82.6536 61.2409 82.5524 60.9856 82.5524 60.6806V46.0981C82.5524 45.7861 82.6536 45.5272 82.8595 45.318C83.0619 45.1016 83.3201 44.9917 83.6272 44.9917H93.1046C93.3837 44.9917 93.621 45.091 93.8164 45.2896C94.0188 45.4882 94.1235 45.7293 94.1235 46.013C94.1235 46.3074 94.0188 46.5521 93.8164 46.7507C93.621 46.9422 93.3837 47.0344 93.1046 47.0344H84.7019V52.3397H92.2531C92.5323 52.3397 92.7696 52.439 92.965 52.6376C93.1674 52.8361 93.2721 53.0844 93.2721 53.3752C93.2721 53.6589 93.1674 53.9 92.965 54.0986C92.7696 54.2901 92.5323 54.3823 92.2531 54.3823H84.7019V59.716H93.1046C93.3837 59.716 93.621 59.8153 93.8164 60.0139C94.0188 60.2125 94.1235 60.4607 94.1235 60.7515C94.1235 61.0352 94.0188 61.2764 93.8164 61.475C93.621 61.6665 93.3837 61.7587 93.1046 61.7587H83.6272Z" fill="black"/>
<path d="M104.926 61.9998C103.352 61.9998 101.939 61.6558 100.683 60.9642C99.4266 60.2656 98.4391 59.262 97.7237 57.957C97.0049 56.6448 96.649 55.1164 96.649 53.3751C96.649 51.6268 97.0049 50.0983 97.7237 48.7933C98.4391 47.4882 99.4266 46.4917 100.683 45.8002C101.939 45.1016 103.352 44.7505 104.926 44.7505C105.994 44.7505 106.953 44.8782 107.801 45.1335C108.646 45.3888 109.483 45.7576 110.314 46.2399C110.666 46.4314 110.844 46.7329 110.844 47.1478C110.844 47.3854 110.753 47.5982 110.579 47.7861C110.401 47.967 110.174 48.0557 109.895 48.0557C109.735 48.0557 109.591 48.0273 109.462 47.9705C108.771 47.6017 108.094 47.3251 107.424 47.1336C106.761 46.935 106.001 46.8357 105.135 46.8357C103.785 46.8357 102.63 47.1194 101.674 47.6868C100.725 48.2542 100.006 49.0344 99.5243 50.0274C99.0393 51.0133 98.7985 52.1268 98.7985 53.3751C98.7985 54.6234 99.0393 55.7405 99.5243 56.7228C100.006 57.7087 100.725 58.4889 101.674 59.0634C102.63 59.6308 103.785 59.9145 105.135 59.9145C106.001 59.9145 106.761 59.8223 107.424 59.6308C108.094 59.4322 108.771 59.1485 109.462 58.7797C109.591 58.7159 109.735 58.6804 109.895 58.6804C110.174 58.6804 110.401 58.7726 110.579 58.9499C110.753 59.1202 110.844 59.34 110.844 59.6025C110.844 60.0209 110.666 60.3224 110.314 60.5103C109.483 60.9926 108.646 61.3614 107.801 61.6168C106.953 61.8721 105.994 61.9998 104.926 61.9998Z" fill="black"/>
<path d="M115.15 61.8724C114.843 61.8724 114.585 61.766 114.383 61.5603C114.177 61.3546 114.075 61.0993 114.075 60.7943V45.9707C114.075 45.6693 114.177 45.4104 114.383 45.1905C114.585 44.9742 114.843 44.8643 115.15 44.8643C115.447 44.8643 115.698 44.9742 115.904 45.1905C116.117 45.4104 116.225 45.6693 116.225 45.9707V52.3683H125.186V45.9707C125.186 45.6693 125.287 45.4104 125.493 45.1905C125.706 44.9742 125.961 44.8643 126.261 44.8643C126.557 44.8643 126.812 44.9742 127.028 45.1905C127.241 45.4104 127.349 45.6693 127.349 45.9707V60.7943C127.349 61.0993 127.241 61.3546 127.028 61.5603C126.812 61.766 126.557 61.8724 126.261 61.8724C125.961 61.8724 125.706 61.766 125.493 61.5603C125.287 61.3546 125.186 61.0993 125.186 60.7943V54.4109H116.225V60.7943C116.225 61.0993 116.117 61.3546 115.904 61.5603C115.698 61.766 115.447 61.8724 115.15 61.8724Z" fill="black"/>
<path d="M133.005 61.8724C132.698 61.8724 132.439 61.766 132.237 61.5603C132.031 61.3546 131.93 61.0993 131.93 60.7943V46.453C131.93 46.0204 132.076 45.6444 132.377 45.3324C132.684 45.0203 133.047 44.8643 133.465 44.8643H133.772C134.282 44.8643 134.721 45.1054 135.084 45.5877L144.185 58.9502V45.9707C144.185 45.6693 144.286 45.4104 144.492 45.1905C144.694 44.9742 144.946 44.8643 145.246 44.8643C145.542 44.8643 145.797 44.9742 146.013 45.1905C146.226 45.4104 146.334 45.6693 146.334 45.9707V60.312C146.334 60.7482 146.181 61.117 145.874 61.4185C145.567 61.7234 145.197 61.8724 144.771 61.8724H144.492C144.241 61.8724 144.003 61.8156 143.78 61.7022C143.557 61.5816 143.375 61.4256 143.236 61.2341L134.079 47.8006V60.7943C134.079 61.0993 133.971 61.3546 133.758 61.5603C133.553 61.766 133.301 61.8724 133.005 61.8724Z" fill="black"/>
<path d="M158.233 61.9998C156.576 61.9998 155.124 61.6309 153.878 60.8933C152.629 60.1557 151.666 59.1414 150.989 57.8435C150.319 56.5491 149.963 55.0596 149.928 53.3751C149.963 51.6942 150.319 50.2047 150.989 48.9068C151.666 47.6017 152.629 46.5875 153.878 45.8569C155.124 45.1193 156.576 44.7505 158.233 44.7505C159.887 44.7505 161.336 45.1193 162.574 45.8569C163.81 46.5875 164.769 47.6088 165.45 48.921C166.137 50.226 166.496 51.7119 166.524 53.3751C166.496 55.0419 166.137 56.5243 165.45 57.8293C164.769 59.1343 163.81 60.1557 162.574 60.8933C161.336 61.6309 159.887 61.9998 158.233 61.9998ZM158.233 59.9571C159.49 59.9571 160.582 59.6698 161.513 59.0918C162.442 58.5173 163.15 57.73 163.635 56.737C164.127 55.7441 164.375 54.6234 164.375 53.3751C164.375 52.1268 164.127 51.0062 163.635 50.0132C163.15 49.0203 162.442 48.2365 161.513 47.6585C160.582 47.084 159.49 46.7932 158.233 46.7932C156.956 46.7932 155.854 47.084 154.925 47.6585C154.004 48.2365 153.296 49.0203 152.804 50.0132C152.319 51.0062 152.078 52.1268 152.078 53.3751C152.078 54.6234 152.319 55.7441 152.804 56.737C153.296 57.73 154.004 58.5173 154.925 59.0918C155.854 59.6698 156.956 59.9571 158.233 59.9571Z" fill="black"/>
<path d="M171.615 61.7589C171.204 61.7589 170.851 61.6135 170.554 61.3192C170.265 61.0177 170.122 60.6595 170.122 60.2411V45.9707C170.122 45.6693 170.223 45.4104 170.429 45.1905C170.631 44.9742 170.889 44.8643 171.197 44.8643C171.493 44.8643 171.744 44.9742 171.95 45.1905C172.163 45.4104 172.271 45.6693 172.271 45.9707V59.5744H180.004C180.311 59.5744 180.566 59.6843 180.772 59.9006C180.985 60.1205 181.093 60.3794 181.093 60.6808C181.093 60.9858 180.985 61.2411 180.772 61.4468C180.566 61.6561 180.311 61.7589 180.004 61.7589H171.615Z" fill="black"/>
<path d="M191.057 61.9998C189.4 61.9998 187.948 61.6309 186.702 60.8933C185.453 60.1557 184.49 59.1414 183.813 57.8435C183.143 56.5491 182.787 55.0596 182.752 53.3751C182.787 51.6942 183.143 50.2047 183.813 48.9068C184.49 47.6017 185.453 46.5875 186.702 45.8569C187.948 45.1193 189.4 44.7505 191.057 44.7505C192.711 44.7505 194.159 45.1193 195.398 45.8569C196.633 46.5875 197.593 47.6088 198.273 48.921C198.961 50.226 199.32 51.7119 199.348 53.3751C199.32 55.0419 198.961 56.5243 198.273 57.8293C197.593 59.1343 196.633 60.1557 195.398 60.8933C194.159 61.6309 192.711 61.9998 191.057 61.9998ZM191.057 59.9571C192.313 59.9571 193.406 59.6698 194.337 59.0918C195.265 58.5173 195.974 57.73 196.459 56.737C196.951 55.7441 197.199 54.6234 197.199 53.3751C197.199 52.1268 196.951 51.0062 196.459 50.0132C195.974 49.0203 195.265 48.2365 194.337 47.6585C193.406 47.084 192.313 46.7932 191.057 46.7932C189.78 46.7932 188.677 47.084 187.749 47.6585C186.828 48.2365 186.12 49.0203 185.628 50.0132C185.142 51.0062 184.902 52.1268 184.902 53.3751C184.902 54.6234 185.142 55.7441 185.628 56.737C186.12 57.73 186.828 58.5173 187.749 59.0918C188.677 59.6698 189.78 59.9571 191.057 59.9571Z" fill="black"/>
<path d="M210.259 61.9998C208.63 61.9998 207.182 61.638 205.919 60.9075C204.662 60.1805 203.685 59.1627 202.987 57.8577C202.296 56.5526 201.955 55.0632 201.955 53.3893C201.955 51.6977 202.317 50.1941 203.043 48.8784C203.769 47.5663 204.753 46.5485 206.002 45.8286C207.259 45.1122 208.654 44.7505 210.19 44.7505C211.418 44.7505 212.493 44.903 213.414 45.2044C214.335 45.5094 215.218 45.935 216.066 46.4811C216.195 46.5378 216.307 46.6478 216.401 46.8074C216.492 46.9705 216.541 47.1478 216.541 47.3464C216.541 47.6124 216.446 47.8429 216.261 48.0415C216.083 48.233 215.846 48.3252 215.55 48.3252C215.382 48.3252 215.218 48.2897 215.061 48.2117C214.314 47.7578 213.571 47.4244 212.828 47.2045C212.091 46.9776 211.292 46.8641 210.427 46.8641C209.227 46.8641 208.141 47.1194 207.175 47.6301C206.215 48.1408 205.461 48.889 204.914 49.8714C204.373 50.8572 204.104 52.0275 204.104 53.3893C204.104 54.6483 204.359 55.7689 204.872 56.7512C205.381 57.7371 206.121 58.5102 207.091 59.0776C208.068 59.645 209.216 59.9287 210.539 59.9287C212.018 59.9287 213.4 59.5812 214.684 58.879V54.5241H210.776C210.504 54.5241 210.277 54.4319 210.092 54.2404C209.904 54.0418 209.813 53.8113 209.813 53.5453C209.813 53.2723 209.904 53.0418 210.092 52.8503C210.277 52.6517 210.504 52.5524 210.776 52.5524H215.438C215.752 52.5524 216.017 52.6659 216.233 52.8928C216.457 53.1198 216.568 53.3964 216.568 53.7156V59.1627C216.568 59.5032 216.485 59.8081 216.317 60.0706C216.15 60.3365 215.933 60.5316 215.675 60.6522C213.906 61.5529 212.102 61.9998 210.259 61.9998Z" fill="black"/>
<path d="M221.922 61.8724C221.615 61.8724 221.357 61.766 221.154 61.5603C220.948 61.3546 220.847 61.0993 220.847 60.7943V45.9707C220.847 45.6693 220.948 45.4104 221.154 45.1905C221.357 44.9742 221.615 44.8643 221.922 44.8643C222.219 44.8643 222.47 44.9742 222.676 45.1905C222.889 45.4104 222.997 45.6693 222.997 45.9707V60.7943C222.997 61.0993 222.889 61.3546 222.676 61.5603C222.47 61.766 222.219 61.8724 221.922 61.8724Z" fill="black"/>
<path d="M228.662 61.7587C228.355 61.7587 228.096 61.6558 227.894 61.4466C227.688 61.2409 227.587 60.9856 227.587 60.6806V46.0981C227.587 45.7861 227.688 45.5272 227.894 45.318C228.096 45.1016 228.355 44.9917 228.662 44.9917H238.139C238.418 44.9917 238.656 45.091 238.851 45.2896C239.053 45.4882 239.158 45.7293 239.158 46.013C239.158 46.3074 239.053 46.5521 238.851 46.7507C238.656 46.9422 238.418 47.0344 238.139 47.0344H229.736V52.3397H237.288C237.567 52.3397 237.804 52.439 238 52.6376C238.202 52.8361 238.307 53.0844 238.307 53.3752C238.307 53.6589 238.202 53.9 238 54.0986C237.804 54.2901 237.567 54.3823 237.288 54.3823H229.736V59.716H238.139C238.418 59.716 238.656 59.8153 238.851 60.0139C239.053 60.2125 239.158 60.4607 239.158 60.7515C239.158 61.0352 239.053 61.2764 238.851 61.475C238.656 61.6665 238.418 61.7587 238.139 61.7587H228.662Z" fill="black"/>
<path d="M247.881 61.9998C245.878 61.9998 244.004 61.6168 242.256 60.8508C242.06 60.7656 241.896 60.6344 241.767 60.4536C241.645 60.2656 241.586 60.067 241.586 59.8578C241.586 59.5847 241.673 59.3471 241.851 59.1485C242.036 58.9499 242.273 58.8506 242.563 58.8506C242.72 58.8506 242.87 58.8861 243.01 58.9499C244.461 59.6025 246.014 59.9287 247.672 59.9287C250.425 59.9287 251.803 59.0067 251.803 57.1626C251.803 56.6909 251.625 56.2937 251.273 55.971C250.917 55.6519 250.481 55.4001 249.961 55.2192C249.437 55.0313 248.697 54.8078 247.741 54.5525C246.464 54.2121 245.431 53.8858 244.643 53.5737C243.851 53.2616 243.17 52.7935 242.605 52.1694C242.036 51.5452 241.753 50.7154 241.753 49.6728C241.753 48.7578 241.991 47.928 242.465 47.1904C242.94 46.4456 243.638 45.8534 244.559 45.4172C245.48 44.9739 246.586 44.7505 247.881 44.7505C249.612 44.7505 251.178 45.0165 252.585 45.5449C253.031 45.6974 253.255 46.013 253.255 46.4953C253.255 46.7506 253.164 46.9847 252.99 47.1904C252.812 47.3996 252.585 47.5024 252.306 47.5024C252.211 47.5024 252.086 47.4741 251.929 47.4173C250.7 46.9847 249.43 46.7648 248.118 46.7648C246.869 46.7648 245.857 47.0059 245.075 47.4882C244.294 47.9705 243.903 48.6443 243.903 49.5026C243.903 50.0806 244.088 50.5487 244.461 50.9069C244.831 51.2686 245.299 51.5523 245.857 51.758C246.415 51.9566 247.176 52.1658 248.146 52.3822C249.381 52.6942 250.383 53.0028 251.147 53.3042C251.918 53.6092 252.574 54.0808 253.115 54.7227C253.663 55.3575 253.939 56.2228 253.939 57.3186C253.939 58.2088 253.68 59.0138 253.171 59.7301C252.668 60.4394 251.96 60.9997 251.049 61.404C250.135 61.8012 249.081 61.9998 247.881 61.9998Z" fill="black"/>
<mask id="mask0_1_464" style="mask-type:luminance" maskUnits="userSpaceOnUse" x="261" y="38" width="10" height="11">
<path d="M261.243 38.9492H271V48.8647H261.243V38.9492Z" fill="white"/>
</mask>
<g mask="url(#mask0_1_464)">
<mask id="mask1_1_464" style="mask-type:luminance" maskUnits="userSpaceOnUse" x="261" y="38" width="10" height="11">
<path d="M266.122 38.9492C263.428 38.9492 261.243 41.1692 261.243 43.907C261.243 46.6447 263.428 48.8647 266.122 48.8647C268.816 48.8647 271 46.6447 271 43.907C271 41.1692 268.816 38.9492 266.122 38.9492Z" fill="white"/>
</mask>
<g mask="url(#mask1_1_464)">
<path d="M261.243 38.9492H271V48.8647H261.243V38.9492Z" fill="#00FAA8"/>
</g>
</g>
<mask id="mask2_1_464" style="mask-type:luminance" maskUnits="userSpaceOnUse" x="0" y="0" width="59" height="62">
<path d="M0 0H58.2883V61.9612H0V0Z" fill="white"/>
</mask>
<g mask="url(#mask2_1_464)">
<mask id="mask3_1_464" style="mask-type:luminance" maskUnits="userSpaceOnUse" x="0" y="0" width="59" height="62">
<path d="M33.485 28.8708H7.46748C6.45902 28.8708 5.72623 27.8955 5.99841 26.9097L13.1414 1.13505C13.3263 0.468345 13.9265 0.00732422 14.6104 0.00732422H40.6245C41.6365 0.00732422 42.3658 0.98256 42.0936 1.96844L34.9506 27.7431C34.7657 28.4098 34.1655 28.8708 33.485 28.8708ZM16.5855 48.3259L20.2634 35.0556C20.5356 34.0697 19.8063 33.0944 18.7978 33.0944H5.42265C4.73871 33.0944 4.13852 33.5555 3.95707 34.2222L0.279155 47.4925C0.00348548 48.4748 0.736277 49.4536 1.74474 49.4536H15.1199C15.8004 49.4536 16.4006 48.9926 16.5855 48.3259ZM23.3516 34.2222L16.2086 59.9968C15.9364 60.9791 16.6692 61.9544 17.6777 61.9544H43.6953C44.3757 61.9544 44.9759 61.4969 45.1608 60.8302L52.3038 35.0556C52.576 34.0697 51.8467 33.0944 50.8347 33.0944H24.8207C24.1367 33.0944 23.5365 33.5555 23.3516 34.2222ZM41.7167 13.6394L38.0388 26.9097C37.7666 27.8955 38.4959 28.8708 39.5079 28.8708H52.8796C53.5635 28.8708 54.1637 28.4098 54.3486 27.7431L58.0266 14.4727C58.2987 13.4869 57.5659 12.5116 56.5575 12.5116H43.1858C42.5019 12.5116 41.9017 12.9727 41.7167 13.6394Z" fill="white"/>
</mask>
<g mask="url(#mask3_1_464)">
<path d="M0.00349426 0.00732422V61.9544H58.2883V0.00732422H0.00349426Z" fill="url(#paint0_linear_1_464)"/>
</g>
</g>
<defs>
<linearGradient id="paint0_linear_1_464" x1="14.2046" y1="-5.89277" x2="44.7437" y2="67.5854" gradientUnits="userSpaceOnUse">
<stop stop-color="#00FCA8"/>
<stop offset="0.0625" stop-color="#00FCA8"/>
<stop offset="0.09375" stop-color="#00FCA8"/>
<stop offset="0.101562" stop-color="#00FCA9"/>
<stop offset="0.109375" stop-color="#01FBAA"/>
<stop offset="0.117188" stop-color="#01FBAB"/>
<stop offset="0.125" stop-color="#01FBAC"/>
<stop offset="0.132812" stop-color="#01FAAD"/>
<stop offset="0.140625" stop-color="#02FAAD"/>
<stop offset="0.148437" stop-color="#02F9AE"/>
<stop offset="0.15625" stop-color="#02F9AF"/>
<stop offset="0.164062" stop-color="#03F9B0"/>
<stop offset="0.171875" stop-color="#03F8B1"/>
<stop offset="0.179687" stop-color="#03F8B2"/>
<stop offset="0.1875" stop-color="#04F8B3"/>
<stop offset="0.195312" stop-color="#04F7B4"/>
<stop offset="0.203125" stop-color="#04F7B5"/>
<stop offset="0.210937" stop-color="#04F7B6"/>
<stop offset="0.21875" stop-color="#05F6B7"/>
<stop offset="0.226562" stop-color="#05F6B8"/>
<stop offset="0.234375" stop-color="#05F6B8"/>
<stop offset="0.242187" stop-color="#06F5B9"/>
<stop offset="0.25" stop-color="#06F5BA"/>
<stop offset="0.257812" stop-color="#06F4BB"/>
<stop offset="0.265625" stop-color="#06F4BC"/>
<stop offset="0.273438" stop-color="#07F4BD"/>
<stop offset="0.281112" stop-color="#07F3BE"/>
<stop offset="0.28125" stop-color="#07F3BE"/>
<stop offset="0.289062" stop-color="#07F3BF"/>
<stop offset="0.296875" stop-color="#08F3C0"/>
<stop offset="0.304688" stop-color="#08F2C1"/>
<stop offset="0.3125" stop-color="#08F2C2"/>
<stop offset="0.320312" stop-color="#09F2C3"/>
<stop offset="0.328125" stop-color="#09F1C3"/>
<stop offset="0.335938" stop-color="#09F1C4"/>
<stop offset="0.34375" stop-color="#09F1C5"/>
<stop offset="0.351562" stop-color="#0AF0C6"/>
<stop offset="0.359375" stop-color="#0AF0C7"/>
<stop offset="0.367188" stop-color="#0AEFC8"/>
<stop offset="0.375" stop-color="#0BEFC9"/>
<stop offset="0.382812" stop-color="#0BEFCA"/>
<stop offset="0.390625" stop-color="#0BEECB"/>
<stop offset="0.398438" stop-color="#0BEECC"/>
<stop offset="0.40625" stop-color="#0CEECD"/>
<stop offset="0.414062" stop-color="#0CEDCD"/>
<stop offset="0.421875" stop-color="#0CEDCE"/>
<stop offset="0.429688" stop-color="#0DEDCF"/>
<stop offset="0.4375" stop-color="#0DECD0"/>
<stop offset="0.445312" stop-color="#0DECD1"/>
<stop offset="0.453125" stop-color="#0EECD2"/>
<stop offset="0.460938" stop-color="#0EEBD3"/>
<stop offset="0.46875" stop-color="#0EEBD4"/>
<stop offset="0.476562" stop-color="#0EEAD5"/>
<stop offset="0.484375" stop-color="#0FEAD6"/>
<stop offset="0.492188" stop-color="#0FEAD7"/>
<stop offset="0.5" stop-color="#0FE9D8"/>
<stop offset="0.507812" stop-color="#10E9D8"/>
<stop offset="0.515625" stop-color="#10E9D9"/>
<stop offset="0.523438" stop-color="#10E8DA"/>
<stop offset="0.53125" stop-color="#11E8DB"/>
<stop offset="0.539062" stop-color="#11E8DC"/>
<stop offset="0.546875" stop-color="#11E7DD"/>
<stop offset="0.554688" stop-color="#11E7DE"/>
<stop offset="0.5625" stop-color="#12E7DF"/>
<stop offset="0.570312" stop-color="#12E6E0"/>
<stop offset="0.578125" stop-color="#12E6E1"/>
<stop offset="0.585938" stop-color="#13E5E2"/>
<stop offset="0.59375" stop-color="#13E5E3"/>
<stop offset="0.601562" stop-color="#13E5E3"/>
<stop offset="0.609375" stop-color="#13E4E4"/>
<stop offset="0.617188" stop-color="#14E4E5"/>
<stop offset="0.625" stop-color="#14E4E6"/>
<stop offset="0.632812" stop-color="#14E3E7"/>
<stop offset="0.640625" stop-color="#15E3E8"/>
<stop offset="0.648438" stop-color="#15E3E9"/>
<stop offset="0.65625" stop-color="#15E2EA"/>
<stop offset="0.664062" stop-color="#16E2EB"/>
<stop offset="0.671875" stop-color="#16E2EC"/>
<stop offset="0.679688" stop-color="#16E1ED"/>
<stop offset="0.6875" stop-color="#16E1EE"/>
<stop offset="0.695312" stop-color="#17E0EE"/>
<stop offset="0.703125" stop-color="#17E0EF"/>
<stop offset="0.710938" stop-color="#17E0F0"/>
<stop offset="0.71875" stop-color="#18DFF1"/>
<stop offset="0.718888" stop-color="#18DFF2"/>
<stop offset="0.726562" stop-color="#18DFF3"/>
<stop offset="0.734375" stop-color="#18DFF3"/>
<stop offset="0.742188" stop-color="#18DEF4"/>
<stop offset="0.75" stop-color="#19DEF5"/>
<stop offset="0.757812" stop-color="#19DEF6"/>
<stop offset="0.765625" stop-color="#19DDF7"/>
<stop offset="0.773438" stop-color="#1ADDF8"/>
<stop offset="0.78125" stop-color="#1ADDF9"/>
<stop offset="0.789062" stop-color="#1ADCF9"/>
<stop offset="0.796875" stop-color="#1BDCFA"/>
<stop offset="0.804687" stop-color="#1BDBFB"/>
<stop offset="0.8125" stop-color="#1BDBFC"/>
<stop offset="0.820312" stop-color="#1BDBFD"/>
<stop offset="0.828125" stop-color="#1CDAFE"/>
<stop offset="0.84375" stop-color="#1CDAFF"/>
<stop offset="0.875" stop-color="#1CDAFF"/>
<stop offset="1" stop-color="#1CDAFF"/>
</linearGradient>
</defs>
</svg>
